<svg width="107" height="36" viewBox="0 0 107 36" fill="none" xmlns="http://www.w3.org/2000/svg">
<g clip-path="url(#clip0)">
<path d="M0 0H16.1124C20.92 0 25.0849 2.65361 25.0849 7.84475C25.0849 10.6912 23.7768 13.691 20.9698 14.7296C23.2772 15.6128 24.7014 18.1524 25.0082 21.571C25.1223 22.9164 25.1617 26.1858 25.9308 27.4545H17.46C17.0453 26.0697 16.8815 24.6475 16.7675 23.2233C16.5374 20.609 16.3052 17.8787 12.9592 17.8787H8.46047V27.4545H0V0ZM8.46047 11.9993H12.8825C14.4601 11.9993 16.6141 11.7298 16.6141 9.26899C16.6141 7.53792 15.6522 6.5366 12.4222 6.5366H8.46047V11.9993Z" fill="white"/>
<path d="M26.3931 0.113525H47.6199V7.14975H34.8535V10.5725H45.8163V17.1112H34.8535V27.5722H26.3931V0.113525Z" fill="white"/>
<path d="M59.6835 26.5671C59.6821 27.2521 59.644 27.9365 59.5695 28.6174C59.4947 29.3368 59.3318 30.0442 59.0844 30.7237C58.8262 31.4278 58.4718 32.0927 58.0312 32.6994C57.5417 33.3634 56.9286 33.9265 56.2255 34.358C55.3698 34.8777 54.437 35.2583 53.462 35.4857C52.1709 35.7842 50.8481 35.9235 49.5231 35.9004C48.3701 35.9008 47.2191 35.8065 46.0817 35.6184C44.9973 35.4479 43.9457 35.1115 42.9637 34.6212C42.0289 34.1501 41.212 33.4749 40.5733 32.6455C39.9224 31.8066 39.5078 30.7224 39.3295 29.3928H46.7015C46.7571 29.5034 46.8201 29.6101 46.8902 29.7121C46.9648 29.8261 47.0395 29.9442 47.1162 30.0707C47.3614 30.4433 47.6661 30.7731 48.018 31.0472C48.3783 31.3428 48.831 31.5027 49.2971 31.4991C49.8262 31.5226 50.3462 31.3556 50.7628 31.0285C51.144 30.7093 51.4523 30.312 51.6667 29.8634C51.8916 29.4002 52.044 28.9051 52.1186 28.3956C52.1886 27.9414 52.226 27.4828 52.2306 27.0232V25.2175H52.156C51.5924 26.0607 50.8298 26.7521 49.9356 27.2305C49.0056 27.7067 47.9722 27.9453 46.9275 27.925C45.6429 27.958 44.3673 27.7008 43.1959 27.1725C42.1778 26.701 41.283 25.9999 40.5816 25.1242C39.8757 24.227 39.3576 23.1969 39.0579 22.0954C38.7247 20.8953 38.56 19.6547 38.5686 18.4093C38.5596 17.1844 38.7436 15.9656 39.1139 14.7979C39.4497 13.7193 39.9926 12.7166 40.7122 11.8458C41.4332 10.9915 42.3317 10.3046 43.3451 9.83275C44.502 9.30926 45.7616 9.05209 47.0312 9.08021C48.0914 9.07073 49.1399 9.30255 50.0973 9.75812C51.031 10.2009 51.7633 10.9798 52.1477 11.9391H52.243V9.56532H59.6918L59.6835 26.5671ZM46.0236 18.3679C46.0241 18.9289 46.0748 19.4888 46.175 20.0409C46.2663 20.58 46.4441 21.1008 46.7015 21.5833C46.9426 22.0368 47.2914 22.4241 47.7174 22.7111C48.2135 23.0204 48.7919 23.1715 49.3759 23.1444C49.916 23.1795 50.4535 23.0442 50.9126 22.7574C51.3716 22.4706 51.7289 22.0468 51.9341 21.546C52.1418 21.0543 52.2752 20.5345 52.3301 20.0036C52.3918 19.448 52.423 18.8895 52.4234 18.3305C52.4555 17.3604 52.1789 16.4052 51.6335 15.6023C51.1069 14.8615 50.2915 14.4918 49.1872 14.4932C48.7043 14.4835 48.2265 14.5932 47.7961 14.8124C47.4051 15.0168 47.0644 15.3058 46.799 15.6583C46.5282 16.0249 46.3304 16.4401 46.2164 16.8814C46.0863 17.3661 46.0214 17.866 46.0236 18.3679Z" fill="#51D87D" stroke="#51D87D" stroke-width="0.207314"/>
<path d="M67.8828 21.0008C67.9823 22.1286 68.3458 23.0435 68.9733 23.7456C69.6007 24.4477 70.5032 24.7988 71.6808 24.7988C72.2922 24.7975 72.8981 24.6829 73.4678 24.4608C74.017 24.267 74.4865 23.8966 74.8029 23.4077H81.7624C81.414 24.4148 80.8779 25.3469 80.1827 26.1546C79.5146 26.9237 78.7194 27.5723 77.8318 28.0722C76.9219 28.5823 75.9449 28.9619 74.9294 29.2C73.8817 29.4513 72.8079 29.5779 71.7305 29.5773C70.252 29.5908 68.7813 29.3618 67.3769 28.8994C66.0962 28.4827 64.9129 27.8114 63.8982 26.9258C62.9068 26.0417 62.1231 24.9493 61.6033 23.7269C61.0283 22.3488 60.7459 20.8663 60.774 19.3734C60.7633 18.0034 61.0116 16.6437 61.5058 15.366C61.9797 14.1488 62.6891 13.0371 63.5935 12.0946C64.5159 11.1405 65.6235 10.385 66.8483 9.87425C68.1893 9.32066 69.6289 9.04558 71.0796 9.06573C73.0145 9.06573 74.682 9.32902 76.082 9.85559C77.409 10.3298 78.5983 11.1246 79.5442 12.1692C80.4796 13.248 81.1605 14.5234 81.5365 15.9009C81.9862 17.5557 82.2018 19.2654 82.1771 20.98L67.8828 21.0008ZM75.0289 17.1261C75.0365 16.6987 74.9591 16.274 74.801 15.8768C74.643 15.4796 74.4076 15.1178 74.1084 14.8125C73.8055 14.4969 73.4397 14.2484 73.0348 14.0831C72.6298 13.9177 72.1947 13.8392 71.7575 13.8526C70.6283 13.8526 69.7507 14.1352 69.1246 14.7005C68.4985 15.2658 68.097 16.0743 67.9201 17.1261H75.0289Z" fill="#51D87D" stroke="#51D87D" stroke-width="0.207314"/>
<path d="M83.4167 9.56586H90.596V12.0536H90.6706C91.3323 11.1119 92.2179 10.3496 93.2476 9.83536C94.2634 9.33366 95.5232 9.08282 97.0269 9.08282C97.8844 9.07968 98.7365 9.21981 99.5478 9.49744C100.334 9.76341 101.062 10.1779 101.691 10.7185C102.336 11.2808 102.844 11.9818 103.178 12.7689C103.561 13.6983 103.747 14.6973 103.723 15.7023V29.0948H96.2826V18.8659C96.2838 18.3508 96.2582 17.836 96.2059 17.3235C96.1711 16.8982 96.0565 16.4832 95.868 16.1004C95.7022 15.7736 95.4479 15.4999 95.1341 15.3105C94.7346 15.102 94.2864 15.0047 93.8363 15.0286C93.4923 15.031 93.1503 15.082 92.8205 15.1799C92.4596 15.286 92.1306 15.4797 91.8627 15.7438C91.5423 16.0683 91.298 16.4598 91.1475 16.8902C90.94 17.5011 90.8445 18.1444 90.8655 18.7892V29.0969H83.4167V9.56586Z" fill="#51D87D" stroke="#51D87D" stroke-width="0.207314"/>
<path d="M106.659 28.2134C106.665 28.4226 106.608 28.6286 106.495 28.8052C106.383 28.9818 106.221 29.1207 106.029 29.2042C105.837 29.2877 105.625 29.3119 105.419 29.2738C105.213 29.2356 105.024 29.1368 104.874 28.9901C104.725 28.8433 104.623 28.6554 104.582 28.4503C104.541 28.2452 104.561 28.0324 104.642 27.8393C104.722 27.6461 104.858 27.4814 105.033 27.3663C105.208 27.2512 105.413 27.191 105.622 27.1934C105.894 27.1934 106.155 27.3003 106.349 27.4911C106.543 27.682 106.654 27.9414 106.659 28.2134ZM104.824 28.2134C104.821 28.3196 104.84 28.4252 104.879 28.5241C104.917 28.623 104.976 28.7131 105.05 28.7891C105.124 28.865 105.213 28.9253 105.311 28.9664C105.409 29.0075 105.514 29.0285 105.62 29.0282C105.725 29.0277 105.828 29.0062 105.924 28.965C106.02 28.9238 106.107 28.8637 106.18 28.7883C106.252 28.7129 106.309 28.6237 106.346 28.526C106.384 28.4284 106.401 28.3242 106.398 28.2196C106.403 28.1129 106.387 28.0062 106.35 27.906C106.313 27.8058 106.256 27.7141 106.182 27.6366C106.108 27.5592 106.02 27.4975 105.922 27.4553C105.823 27.4132 105.718 27.3914 105.611 27.3914C105.504 27.3914 105.398 27.4132 105.3 27.4553C105.202 27.4975 105.113 27.5592 105.04 27.6366C104.966 27.7141 104.909 27.8058 104.872 27.906C104.835 28.0062 104.819 28.1129 104.824 28.2196V28.2134ZM105.446 28.7421H105.21V27.7221C105.339 27.7024 105.47 27.692 105.601 27.691C105.723 27.6779 105.846 27.7064 105.95 27.7718C105.982 27.7956 106.009 27.8268 106.027 27.8628C106.046 27.8989 106.055 27.9387 106.055 27.9791C106.052 28.0367 106.03 28.0916 105.993 28.1354C105.955 28.1792 105.905 28.2095 105.848 28.2217V28.2341C105.948 28.2652 105.997 28.3461 106.029 28.4829C106.041 28.569 106.067 28.6528 106.103 28.7317H105.854C105.814 28.6537 105.787 28.5697 105.774 28.4829C105.755 28.3772 105.693 28.3274 105.566 28.3274H105.454L105.446 28.7421ZM105.446 28.1699H105.558C105.689 28.1699 105.794 28.1263 105.794 28.0206C105.794 27.9149 105.726 27.8651 105.577 27.8651C105.533 27.8642 105.489 27.8684 105.446 27.8776V28.1699Z" fill="white"/>
</g>
<defs>
<clipPath id="clip0">
<rect width="106.659" height="36" fill="white"/>
</clipPath>
</defs>
</svg>
