<svg width="18" height="19" viewBox="0 0 18 19" fill="none" xmlns="http://www.w3.org/2000/svg">
<path d="M17.3333 13.1684C17.333 14.308 16.9434 15.4134 16.2292 16.3014C15.5149 17.1895 14.5189 17.807 13.4058 18.0517L12.8742 16.4567C13.361 16.3766 13.824 16.1894 14.2298 15.9087C14.6356 15.6279 14.9741 15.2607 15.2208 14.8334H13.1667C12.7246 14.8334 12.3007 14.6578 11.9881 14.3453C11.6756 14.0327 11.5 13.6088 11.5 13.1667V9.83342C11.5 9.39139 11.6756 8.96746 11.9881 8.6549C12.3007 8.34234 12.7246 8.16675 13.1667 8.16675H15.615C15.4116 6.55583 14.6274 5.07448 13.4095 4.00064C12.1916 2.92681 10.6237 2.33431 8.99999 2.33431C7.37628 2.33431 5.80838 2.92681 4.59047 4.00064C3.37256 5.07448 2.58835 6.55583 2.38499 8.16675H4.83332C5.27535 8.16675 5.69927 8.34234 6.01183 8.6549C6.32439 8.96746 6.49999 9.39139 6.49999 9.83342V13.1667C6.49999 13.6088 6.32439 14.0327 6.01183 14.3453C5.69927 14.6578 5.27535 14.8334 4.83332 14.8334H2.33332C1.8913 14.8334 1.46737 14.6578 1.15481 14.3453C0.842251 14.0327 0.666656 13.6088 0.666656 13.1667V9.00008C0.666656 4.39758 4.39749 0.666748 8.99999 0.666748C13.6025 0.666748 17.3333 4.39758 17.3333 9.00008V13.1684Z" fill="white"/>
</svg>
