<svg width="18" height="19" viewBox="0 0 18 19" fill="none" xmlns="http://www.w3.org/2000/svg">
<path d="M17.3334 13.1684C17.333 14.308 16.9435 15.4134 16.2293 16.3014C15.515 17.1895 14.519 17.807 13.4059 18.0517L12.8742 16.4567C13.3611 16.3766 13.8241 16.1894 14.2299 15.9087C14.6357 15.6279 14.9742 15.2607 15.2209 14.8334H13.1667C12.7247 14.8334 12.3008 14.6578 11.9882 14.3453C11.6757 14.0327 11.5001 13.6088 11.5001 13.1667V9.83342C11.5001 9.39139 11.6757 8.96746 11.9882 8.6549C12.3008 8.34234 12.7247 8.16675 13.1667 8.16675H15.6151C15.4117 6.55583 14.6275 5.07448 13.4096 4.00064C12.1917 2.92681 10.6238 2.33431 9.00008 2.33431C7.37638 2.33431 5.80847 2.92681 4.59056 4.00064C3.37265 5.07448 2.58844 6.55583 2.38508 8.16675H4.83341C5.27544 8.16675 5.69937 8.34234 6.01193 8.6549C6.32449 8.96746 6.50008 9.39139 6.50008 9.83342V13.1667C6.50008 13.6088 6.32449 14.0327 6.01193 14.3453C5.69937 14.6578 5.27544 14.8334 4.83341 14.8334H2.33341C1.89139 14.8334 1.46746 14.6578 1.1549 14.3453C0.842343 14.0327 0.666748 13.6088 0.666748 13.1667V9.00008C0.666748 4.39758 4.39758 0.666748 9.00008 0.666748C13.6026 0.666748 17.3334 4.39758 17.3334 9.00008V13.1684Z" fill="#020D2B"/>
</svg>
