<?xml version="1.0" encoding="utf-8"?>
<!-- Generator: Adobe Illustrator 15.0.0, SVG Export Plug-In . SVG Version: 6.00 Build 0)  -->
<!DOCTYPE svg PUBLIC "-//W3C//DTD SVG 1.1//EN" "http://www.w3.org/Graphics/SVG/1.1/DTD/svg11.dtd">
<svg version="1.1" id="Layer_1" xmlns:svgjs="http://svgjs.com/svgjs"
	 xmlns="http://www.w3.org/2000/svg" xmlns:xlink="http://www.w3.org/1999/xlink" x="0px" y="0px" width="512px" height="512px"
	 viewBox="0 0 512 512" enable-background="new 0 0 512 512" xml:space="preserve">
<g>
	<g>
		<g>
			<path fill="#FFFFFF" d="M506.134,241.843c-0.006-0.006-0.011-0.013-0.018-0.019l-104.504-104
				c-7.829-7.791-20.492-7.762-28.285,0.068c-7.792,7.829-7.762,20.492,0.066,28.284L443.558,236H20c-11.046,0-20,8.954-20,20
				s8.954,20,20,20h423.557l-70.162,69.824c-7.828,7.792-7.858,20.455-0.066,28.283c7.793,7.832,20.457,7.858,28.285,0.068
				l104.504-104c0.006-0.006,0.011-0.013,0.018-0.019C513.968,262.339,513.943,249.635,506.134,241.843z"/>
		</g>
	</g>
</g>
</svg>
