<?xml version="1.0" encoding="utf-8"?>
<!-- Generator: Adobe Illustrator 15.0.0, SVG Export Plug-In  -->
<!DOCTYPE svg PUBLIC "-//W3C//DTD SVG 1.1//EN" "http://www.w3.org/Graphics/SVG/1.1/DTD/svg11.dtd" [
	<!ENTITY ns_flows "http://ns.adobe.com/Flows/1.0/">
]>
<svg version="1.1"
	 xmlns="http://www.w3.org/2000/svg" xmlns:xlink="http://www.w3.org/1999/xlink" xmlns:a="http://ns.adobe.com/AdobeSVGViewerExtensions/3.0/"
	 x="0px" y="0px" width="512px" height="512px" viewBox="0 0 512 512" enable-background="new 0 0 512 512" xml:space="preserve">
<defs>
</defs>
<path fill="#51D87D" d="M360.576,241.936l-90.512-90.512c-6.256-6.256-16.383-6.256-22.624,0c-6.256,6.256-6.256,16.384,0,22.625
	L313.377,240H144c-8.832,0-16,7.168-16,16s7.168,16,16,16h169.376l-65.936,65.936c-6.256,6.256-6.256,16.385,0,22.623
	c6.256,6.258,16.384,6.258,22.624,0l90.512-90.51c3.84-3.841,5.023-9.089,4.16-14.065C365.6,251.04,364.4,245.776,360.576,241.936z
	 M256,0C114.608,0,0,114.608,0,256c0,141.393,114.608,256,256,256c141.393,0,256-114.624,256-256C512,114.625,397.393,0,256,0z
	 M256,480C132.288,480,32,379.713,32,256C32,132.288,132.288,32,256,32c123.713,0,224,100.288,224,224
	C480,379.713,379.713,480,256,480z"/>
</svg>
