<svg width="18" height="18" viewBox="0 0 18 18" fill="none" xmlns="http://www.w3.org/2000/svg">
<path d="M8.16663 0.666504C12.3066 0.666504 15.6666 4.0265 15.6666 8.1665C15.6666 12.3065 12.3066 15.6665 8.16663 15.6665C4.02663 15.6665 0.666626 12.3065 0.666626 8.1665C0.666626 4.0265 4.02663 0.666504 8.16663 0.666504ZM8.16663 13.9998C11.3891 13.9998 14 11.389 14 8.1665C14 4.94317 11.3891 2.33317 8.16663 2.33317C4.94329 2.33317 2.33329 4.94317 2.33329 8.1665C2.33329 11.389 4.94329 13.9998 8.16663 13.9998ZM15.2375 14.059L17.595 16.4157L16.4158 17.5948L14.0591 15.2373L15.2375 14.059Z" fill="white"/>
</svg>
