<svg width="14" height="19" viewBox="0 0 14 19" fill="none" xmlns="http://www.w3.org/2000/svg">
<path d="M13.6666 18.3333H11.9999V16.6666C11.9999 16.0035 11.7365 15.3677 11.2677 14.8988C10.7988 14.43 10.163 14.1666 9.49992 14.1666H4.49992C3.83688 14.1666 3.20099 14.43 2.73215 14.8988C2.26331 15.3677 1.99992 16.0035 1.99992 16.6666V18.3333H0.333252V16.6666C0.333252 15.5615 0.772239 14.5017 1.55364 13.7203C2.33504 12.9389 3.39485 12.4999 4.49992 12.4999H9.49992C10.605 12.4999 11.6648 12.9389 12.4462 13.7203C13.2276 14.5017 13.6666 15.5615 13.6666 16.6666V18.3333ZM6.99992 10.8333C6.34331 10.8333 5.69313 10.7039 5.0865 10.4526C4.47987 10.2014 3.92868 9.83308 3.46438 9.36879C3.00009 8.90449 2.63179 8.3533 2.38052 7.74667C2.12925 7.14004 1.99992 6.48986 1.99992 5.83325C1.99992 5.17664 2.12925 4.52646 2.38052 3.91983C2.63179 3.31321 3.00009 2.76201 3.46438 2.29772C3.92868 1.83343 4.47987 1.46513 5.0865 1.21385C5.69313 0.962581 6.34331 0.833252 6.99992 0.833252C8.326 0.833252 9.59777 1.36004 10.5355 2.29772C11.4731 3.2354 11.9999 4.50717 11.9999 5.83325C11.9999 7.15933 11.4731 8.4311 10.5355 9.36879C9.59777 10.3065 8.326 10.8333 6.99992 10.8333ZM6.99992 9.16658C7.88397 9.16658 8.73182 8.8154 9.35694 8.19027C9.98206 7.56515 10.3333 6.71731 10.3333 5.83325C10.3333 4.9492 9.98206 4.10135 9.35694 3.47623C8.73182 2.85111 7.88397 2.49992 6.99992 2.49992C6.11586 2.49992 5.26802 2.85111 4.6429 3.47623C4.01777 4.10135 3.66658 4.9492 3.66658 5.83325C3.66658 6.71731 4.01777 7.56515 4.6429 8.19027C5.26802 8.8154 6.11586 9.16658 6.99992 9.16658Z" fill="#020D2B"/>
</svg>
