<svg width="14" height="19" viewBox="0 0 14 19" fill="none" xmlns="http://www.w3.org/2000/svg">
<path d="M13.6666 18.3333H12V16.6666C12 16.0035 11.7366 15.3677 11.2677 14.8988C10.7989 14.43 10.163 14.1666 9.49998 14.1666H4.49998C3.83694 14.1666 3.20105 14.43 2.73221 14.8988C2.26337 15.3677 1.99998 16.0035 1.99998 16.6666V18.3333H0.333313V16.6666C0.333313 15.5615 0.7723 14.5017 1.5537 13.7203C2.3351 12.9389 3.39491 12.4999 4.49998 12.4999H9.49998C10.605 12.4999 11.6649 12.9389 12.4463 13.7203C13.2277 14.5017 13.6666 15.5615 13.6666 16.6666V18.3333ZM6.99998 10.8333C6.34337 10.8333 5.69319 10.7039 5.08656 10.4526C4.47993 10.2014 3.92874 9.83308 3.46445 9.36879C3.00015 8.90449 2.63186 8.3533 2.38058 7.74667C2.12931 7.14004 1.99998 6.48986 1.99998 5.83325C1.99998 5.17664 2.12931 4.52646 2.38058 3.91983C2.63186 3.31321 3.00015 2.76201 3.46445 2.29772C3.92874 1.83343 4.47993 1.46513 5.08656 1.21385C5.69319 0.962581 6.34337 0.833252 6.99998 0.833252C8.32606 0.833252 9.59783 1.36004 10.5355 2.29772C11.4732 3.2354 12 4.50717 12 5.83325C12 7.15933 11.4732 8.4311 10.5355 9.36879C9.59783 10.3065 8.32606 10.8333 6.99998 10.8333ZM6.99998 9.16658C7.88403 9.16658 8.73188 8.8154 9.357 8.19027C9.98212 7.56515 10.3333 6.71731 10.3333 5.83325C10.3333 4.9492 9.98212 4.10135 9.357 3.47623C8.73188 2.85111 7.88403 2.49992 6.99998 2.49992C6.11592 2.49992 5.26808 2.85111 4.64296 3.47623C4.01784 4.10135 3.66665 4.9492 3.66665 5.83325C3.66665 6.71731 4.01784 7.56515 4.64296 8.19027C5.26808 8.8154 6.11592 9.16658 6.99998 9.16658Z" fill="white"/>
</svg>
