<?xml version="1.0" encoding="utf-8"?>
<!-- Generator: Adobe Illustrator 15.0.0, SVG Export Plug-In . SVG Version: 6.00 Build 0)  -->
<!DOCTYPE svg PUBLIC "-//W3C//DTD SVG 1.1//EN" "http://www.w3.org/Graphics/SVG/1.1/DTD/svg11.dtd">
<svg version="1.1" id="Layer_1" xmlns:svgjs="http://svgjs.com/svgjs"
	 xmlns="http://www.w3.org/2000/svg" xmlns:xlink="http://www.w3.org/1999/xlink" x="0px" y="0px" width="512px" height="512px"
	 viewBox="0 0 512 512" enable-background="new 0 0 512 512" xml:space="preserve">
<g>
	<g>
		<g>
			<path fill="#51D87D" d="M256,0C114.847,0,0,114.847,0,256c0,141.153,114.847,256,256,256c141.153,0,256-114.847,256-256
				C512,114.847,397.153,0,256,0z M399.078,188.631L235.469,350.957c-9.624,9.625-25.022,10.266-35.288,0.643l-86.617-78.918
				c-10.266-9.624-10.907-25.664-1.925-35.93c9.624-10.266,25.664-10.907,35.93-1.283l68.652,62.877L362.506,152.06
				c10.266-10.266,26.307-10.266,36.572,0S409.344,178.366,399.078,188.631z"/>
		</g>
	</g>
</g>
</svg>
