<?xml version="1.0" encoding="utf-8"?>
<!-- Generator: Adobe Illustrator 15.0.0, SVG Export Plug-In . SVG Version: 6.00 Build 0)  -->
<!DOCTYPE svg PUBLIC "-//W3C//DTD SVG 1.1//EN" "http://www.w3.org/Graphics/SVG/1.1/DTD/svg11.dtd">
<svg version="1.1" id="Capa_1" xmlns="http://www.w3.org/2000/svg" xmlns:xlink="http://www.w3.org/1999/xlink" x="0px" y="0px"
	 width="512px" height="512px" viewBox="0 0 512 512" enable-background="new 0 0 512 512" xml:space="preserve">
<g>
	<g>
		<g>
			<path d="M225.474,0C101.151,0,0,101.151,0,225.474c0,124.331,101.151,225.474,225.474,225.474
				c124.33,0,225.474-101.144,225.474-225.474C450.948,101.151,349.804,0,225.474,0z M225.474,409.323
				c-101.373,0-183.848-82.476-183.848-183.848c0-101.373,82.475-183.849,183.848-183.849c101.373,0,183.848,82.475,183.848,183.848
				C409.322,326.848,326.847,409.323,225.474,409.323z"/>
		</g>
	</g>
	<g>
		<g>
			<path d="M505.902,476.472L386.574,357.145c-8.131-8.131-21.299-8.131-29.431,0c-8.131,8.123-8.131,21.306,0,29.43
				l119.328,119.328c4.065,4.064,9.388,6.098,14.716,6.098c5.32,0,10.648-2.033,14.715-6.098
				C514.033,497.778,514.033,484.596,505.902,476.472z"/>
		</g>
	</g>
</g>
</svg>
