<?xml version="1.0"?>
<svg xmlns="http://www.w3.org/2000/svg" xmlns:xlink="http://www.w3.org/1999/xlink" xmlns:svgjs="http://svgjs.com/svgjs" version="1.1" width="512" height="512" x="0" y="0" viewBox="0 0 512 512" style="enable-background:new 0 0 512 512" xml:space="preserve" class=""><g><g xmlns="http://www.w3.org/2000/svg"><path d="m482.709 325.354c-7.026-10.036-17.541-16.734-29.605-18.862-12.066-2.125-24.236.57-34.271 7.598l-84.215 58.967c-5.676-13.767-18.048-24.429-33.799-27.206l-76.57-13.501c-9.169-1.617-17.92-5.209-25.378-10.784-19.948-14.912-45.504-21.041-70.043-16.819l-8.474 1.459v-2.196c0-8.284-6.716-15-15-15h-69.348c-8.284 0-15 6.716-15 15v186.164c0 8.284 6.716 15 15 15h69.348c8.284 0 15-6.716 15-15v-2.602l158.694 23.62c3.643.542 7.301.809 10.949.809 16.774 0 33.296-5.645 46.58-16.138l136.991-108.209c19.051-15.048 23.066-42.413 9.141-62.3zm-392.355 149.82h-39.348v-156.164h39.348zm364.619-111.063-136.991 108.209c-9.704 7.666-22.288 11.016-34.518 9.198l-163.11-24.277v-120.593l13.565-2.336c16.362-2.817 33.397 1.229 46.744 11.1 11.283 8.346 24.554 14.045 38.376 16.482l76.57 13.502c8.158 1.439 13.606 9.218 12.167 17.376-1.438 8.158-9.218 13.606-17.377 12.167l-95.391-16.82c-8.155-1.443-15.938 4.009-17.376 12.167s4.009 15.938 12.167 17.376l95.392 16.82c19.886 3.506 39.022-6.624 47.814-23.674l103.035-72.146c3.472-2.431 7.683-3.363 11.854-2.628 4.173.736 7.811 3.053 10.241 6.524 4.817 6.882 3.428 16.348-3.162 21.553z" fill="#ffffff" data-original="#000000" style=""/><path d="m216.006 250h160c19.299 0 35-15.701 35-35v-120c0-19.299-15.701-35-35-35h-25v-25c0-19.299-15.701-35-35-35h-40c-19.299 0-35 15.701-35 35v25h-25c-19.299 0-35 15.701-35 35v120c0 19.299 15.701 35 35 35zm55-215c0-2.757 2.243-5 5-5h40c2.757 0 5 2.243 5 5v25h-50zm-55 55h160c2.757 0 5 2.243 5 5 0 13.785-11.215 25-25 25h-120c-13.785 0-25-11.215-25-25 0-2.757 2.243-5 5-5zm-5 53.965c7.507 3.849 16 6.035 25 6.035h5v15c0 8.284 6.716 15 15 15s15-6.716 15-15v-15h50v15c0 8.284 6.716 15 15 15s15-6.716 15-15v-15h5c9 0 17.493-2.187 25-6.035v71.035c0 2.757-2.243 5-5 5h-160c-2.757 0-5-2.243-5-5z" fill="#ffffff" data-original="#000000" style=""/></g></g></svg>
