<?xml version="1.0" encoding="utf-8"?>
<!-- Generator: Adobe Illustrator 15.0.0, SVG Export Plug-In . SVG Version: 6.00 Build 0)  -->
<!DOCTYPE svg PUBLIC "-//W3C//DTD SVG 1.1//EN" "http://www.w3.org/Graphics/SVG/1.1/DTD/svg11.dtd">
<svg version="1.1" id="Layer_1" xmlns:svgjs="http://svgjs.com/svgjs"
	 xmlns="http://www.w3.org/2000/svg" xmlns:xlink="http://www.w3.org/1999/xlink" x="0px" y="0px" width="512px" height="512px"
	 viewBox="0 0 512 512" enable-background="new 0 0 512 512" xml:space="preserve">
<g>
	<path fill="#FFFFFF" d="M406,211H281.785L389.039,22.414c2.641-4.641,2.609-10.34-0.074-14.957C386.282,2.84,381.34,0,376,0H196
		c-6.461,0-12.199,4.141-14.234,10.273l-90,270.997c-1.52,4.573-0.75,9.598,2.07,13.508C96.656,298.684,101.179,301,106,301h127.293
		l-81.09,190.113c-2.887,6.77-0.441,14.629,5.777,18.563c6.218,3.935,14.371,2.773,19.25-2.729l240-271
		C425.777,226.289,418.91,211,406,211z M216.078,417.832l53.719-125.945C274.008,282.012,266.758,271,256,271H126.785l80.039-241
		h143.387L242.96,218.582C237.289,228.555,244.496,241,256,241h116.68L216.078,417.832z"/>
</g>
</svg>
