<svg xmlns="http://www.w3.org/2000/svg" xmlns:xlink="http://www.w3.org/1999/xlink" version="1.1" style="" xml:space="preserve" width="512" height="512"><rect id="backgroundrect" width="100%" height="100%" x="0" y="0" fill="none" stroke="none"/>




















<g class="currentLayer" style=""><title>Layer 1</title><g id="svg_1" class="" fill-opacity="1" fill="#ffffff">
	<g id="svg_2" fill="#ffffff" fill-opacity="1">
		<path d="M337.09,0.4444444179534912 c-0.031000000000000007,0 -0.06000000000000001,0 -0.09100000000000003,0 c-46.728,0 -90.662,18.191 -123.713,51.227 C180.214,84.72744441795349 162,128.6844444179535 162,175.4444444179535 v81 h30 v-81 c0,-38.744 15.091,-75.165 42.494,-102.555 C261.881,45.51544441795349 298.279,30.44444441795349 336.999,30.44444441795349 c0.024000000000000004,0 0.05200000000000001,0 0.07500000000000001,0 C416.986,30.48444441795349 482,96.21844441795349 482,176.9754444179535 c0,81.417 -31.705,157.96 -89.275,215.532 l-70.792,70.792 C310.876,474.3554444179535 296.176,480.4444444179535 280.539,480.4444444179535 C248.261,480.4444444179535 222,454.18344441795347 222,421.9054444179535 V396.4444444179535 h-30 v25.461 C192,470.7264444179535 231.719,510.4444444179535 280.539,510.4444444179535 c23.649,0 45.884,-9.209 62.606,-25.933 l70.792,-70.792 c31.247,-31.248 55.666,-67.792 72.577,-108.619 C503.426,264.2744444179535 512,221.1664444179535 512,176.9754444179535 C512,79.68444441795349 433.535,0.49244441795349125 337.09,0.4444444179534912 z" id="svg_3" fill="#ffffff" fill-opacity="1"/>
	</g>
</g><g id="svg_4" class="" fill-opacity="1" fill="#ffffff">
	<g id="svg_5" fill="#ffffff" fill-opacity="1">
		<path d="M337,75.44444441795349 c-26.701,0 -51.808,10.396 -70.694,29.272 C247.407,123.6064444179535 237,148.7244444179535 237,175.4444444179535 h0.019000000000000003 c-0.003000000000000001,0.24800000000000003 -0.019000000000000003,0.49200000000000005 -0.019000000000000003,0.7410000000000001 v27.333 c0,20.725 8.071,40.21 22.726,54.865 C264.417,263.0744444179535 267,269.3114444179535 267,275.9444444179535 s-2.583,12.870000000000001 -7.273,17.561 C248.94,304.29144441795347 243,318.6324444179535 243,333.88544441795347 V341.4444444179535 c0,25.916 21.084,47 47,47 h1 c25.916,0 47,-21.084 47,-47 h-30 c0,9.374 -7.626,17 -17,17 h-1 c-9.374,0 -17,-7.626 -17,-17 v-7.559 c0,-7.24 2.819,-14.047 7.94,-19.167 C291.297,304.3604444179535 297,290.5904444179535 297,275.9444444179535 s-5.703,-28.416 -16.061,-38.774 C271.95,228.1814444179535 267,216.2304444179535 267,203.5184444179535 v-27.333 c0,-16.677 13.226,-30.465 29.48,-30.736 c0.17400000000000002,-0.003000000000000001 0.3460000000000001,-0.004000000000000001 0.518,-0.004000000000000001 c7.926,0 15.379,3.045 21.035,8.609 C323.815,159.73944441795348 327,167.3364444179535 327,175.4444444179535 h30 c0,-16.216 -6.368,-31.409 -17.931,-42.781 c-10.431000000000001,-10.258 -23.919,-16.233 -38.365,-17.095 C311.54,108.9754444179535 324.007,105.44444441795349 337.037,105.44444441795349 C375.615,105.46444441795349 407,137.5524444179535 407,176.9754444179535 c0,31.974 -6.378,62.835 -18.955,91.726 l27.506,11.975 C429.783,247.9854444179535 437,213.0944444179535 437,176.9754444179535 C437,121.01844441795349 392.164,75.4724444179535 337,75.44444441795349 z" id="svg_6" fill="#ffffff" fill-opacity="1"/>
	</g>
</g><g id="svg_7" class="" fill-opacity="1" fill="#ffffff">
	<g id="svg_8" fill="#ffffff" fill-opacity="1">
		<circle cx="20.55555558204651" cy="367" r="20" id="svg_9" fill="#ffffff" fill-opacity="1"/>
	</g>
</g><g id="svg_10" class="" fill-opacity="1" fill="#ffffff">
	<g id="svg_11" fill="#ffffff" fill-opacity="1">
		<path d="M76.568,310.432l-21.213,21.213c19.494,19.495,19.494,51.216,0,70.711l21.213,21.213    C107.76,392.376,107.76,341.624,76.568,310.432z" id="svg_12" fill="#ffffff" fill-opacity="1"/>
	</g>
</g><g id="svg_13" class="" fill-opacity="1" fill="#ffffff">
	<g id="svg_14" fill="#ffffff" fill-opacity="1">
		<path d="M118.995,268.005l-21.213,21.213c42.889,42.889,42.889,112.674,0,155.563l21.213,21.213    C173.581,411.408,173.581,322.591,118.995,268.005z" id="svg_15" fill="#ffffff" fill-opacity="1"/>
	</g>
</g><g id="svg_16">
</g><g id="svg_17">
</g><g id="svg_18">
</g><g id="svg_19">
</g><g id="svg_20">
</g><g id="svg_21">
</g><g id="svg_22">
</g><g id="svg_23">
</g><g id="svg_24">
</g><g id="svg_25">
</g><g id="svg_26">
</g><g id="svg_27">
</g><g id="svg_28">
</g><g id="svg_29">
</g><g id="svg_30">
</g><image id="svg_31" x="383" y="22" width="0" height="2" style="color: rgb(33, 90, 104);" xlink:href="logo/vector_paint_icon256.png"/><image opacity="1" id="svg_33" x="383" y="22" width="0" height="0" style="color: rgb(33, 90, 104);" xlink:href="logo/vector_paint_icon256.png"/></g></svg>