<svg xmlns="http://www.w3.org/2000/svg" xmlns:xlink="http://www.w3.org/1999/xlink" xmlns:svgjs="http://svgjs.com/svgjs" version="1.1" width="446.843" height="446.843" style="enable-background:new 0 0 512 512" xml:space="preserve"><rect id="backgroundrect" width="100%" height="100%" x="0" y="0" fill="none" stroke="none"/><g class="currentLayer" style=""><title>Layer 1</title><g id="svg_1" class="selected" fill="#215a68" fill-opacity="1">
<g xmlns="http://www.w3.org/2000/svg" id="svg_2" fill="#215a68" fill-opacity="1">
	<path d="M444.09,92.54744441795349 c-2.6980000000000004,-3.6990000000000003 -7.006,-5.888 -11.584,-5.888 H155.321 c-7.92,0 -14.337,6.417 -14.337,14.337 s6.417,14.337 14.337,14.337 h257.537 l-10.338000000000001,32.259 H186.782 c-7.92,0 -14.337,6.417 -14.337,14.337 c0,7.92 6.417,14.337 14.337,14.337 h206.543 l-11.868,37.038 H203.509 c-7.92,0 -14.337,6.417 -14.337,14.34 c0,7.92 6.417,14.337 14.337,14.337 h168.759 l-9.955,31.064 H172.692 L94.794,48.50844441795349 c-1.3760000000000001,-3.958 -4.406,-7.113 -8.3,-8.646 L19.586,13.578444417953492 c-7.374,-2.887 -15.695,0.7350000000000001 -18.591,8.1 c-2.891,7.369 0.7300000000000001,15.695 8.1,18.591 l60.768,23.872 l74.381,214.399 c-3.283,1.1440000000000001 -6.065,3.6630000000000003 -7.332,7.187 l-21.506,59.739 c-1.318,3.6630000000000003 -0.775,7.7330000000000005 1.468,10.916 c2.24,3.183 5.883,5.078 9.773,5.078 h11.044 c-6.844,7.616 -11.044,17.646 -11.044,28.675 c0,23.718 19.298000000000002,43.012 43.012,43.012 s43.012,-19.294 43.012,-43.012 c0,-11.029 -4.2,-21.059 -11.044,-28.675 h93.776 c-6.847,7.616 -11.048,17.646 -11.048,28.675 c0,23.718 19.294,43.012 43.013,43.012 c23.718,0 43.012,-19.294 43.012,-43.012 c0,-11.029 -4.2,-21.059 -11.043,-28.675 h13.433 c6.599,0 11.947,-5.349 11.947,-11.948 c0,-6.599 -5.349,-11.947 -11.947,-11.947 H143.647 l13.319,-36.996 c1.7200000000000002,0.7240000000000001 3.5780000000000003,1.1520000000000001 5.523,1.1520000000000001 h210.278 c6.234,0 11.751,-4.027 13.65,-9.959 l59.739,-186.387 C447.557,101.01144441795348 446.788,96.2464444179535 444.09,92.54744441795349 zM169.659,409.2514444179535 c-10.543,0 -19.116,-8.573 -19.116,-19.116 s8.573,-19.117 19.116,-19.117 s19.116,8.574 19.116,19.117 S180.202,409.2514444179535 169.659,409.2514444179535 zM327.367,409.2514444179535 c-10.543,0 -19.117,-8.573 -19.117,-19.116 s8.574,-19.117 19.117,-19.117 c10.542,0 19.116,8.574 19.116,19.117 S337.909,409.2514444179535 327.367,409.2514444179535 z" fill="#215a68" data-original="#000000" style="" id="svg_3" fill-opacity="1"/>
</g>
<g xmlns="http://www.w3.org/2000/svg" id="svg_4" fill="#215a68" fill-opacity="1">
</g>
<g xmlns="http://www.w3.org/2000/svg" id="svg_5" fill="#215a68" fill-opacity="1">
</g>
<g xmlns="http://www.w3.org/2000/svg" id="svg_6" fill="#215a68" fill-opacity="1">
</g>
<g xmlns="http://www.w3.org/2000/svg" id="svg_7" fill="#215a68" fill-opacity="1">
</g>
<g xmlns="http://www.w3.org/2000/svg" id="svg_8" fill="#215a68" fill-opacity="1">
</g>
<g xmlns="http://www.w3.org/2000/svg" id="svg_9" fill="#215a68" fill-opacity="1">
</g>
<g xmlns="http://www.w3.org/2000/svg" id="svg_10" fill="#215a68" fill-opacity="1">
</g>
<g xmlns="http://www.w3.org/2000/svg" id="svg_11" fill="#215a68" fill-opacity="1">
</g>
<g xmlns="http://www.w3.org/2000/svg" id="svg_12" fill="#215a68" fill-opacity="1">
</g>
<g xmlns="http://www.w3.org/2000/svg" id="svg_13" fill="#215a68" fill-opacity="1">
</g>
<g xmlns="http://www.w3.org/2000/svg" id="svg_14" fill="#215a68" fill-opacity="1">
</g>
<g xmlns="http://www.w3.org/2000/svg" id="svg_15" fill="#215a68" fill-opacity="1">
</g>
<g xmlns="http://www.w3.org/2000/svg" id="svg_16" fill="#215a68" fill-opacity="1">
</g>
<g xmlns="http://www.w3.org/2000/svg" id="svg_17" fill="#215a68" fill-opacity="1">
</g>
<g xmlns="http://www.w3.org/2000/svg" id="svg_18" fill="#215a68" fill-opacity="1">
</g>
</g></g></svg>