<svg xmlns="http://www.w3.org/2000/svg" height="450" width="450"><rect id="backgroundrect" width="100%" height="100%" x="0" y="0" fill="none" stroke="none"/><g class="currentLayer" style=""><title>Layer 1</title><g id="website_support" data-name="website support" class="selected" fill="#ffffff" fill-opacity="1"><path d="m397.28224463317093,29.777779648763044 h-347.1094879130094 a19.34171202093047,19.252027460150398 0 0 0 -19.283860439611633,19.1944441277671 v236.7314775757942 a19.34171202093047,19.252027460150398 0 0 0 19.283860439611633,19.1944441277671 h66.91499572545237 a3.3296799025729418,3.314240686061119 0 0 1 -0.25711813919482196,2.4952777366097236 l-16.198442769273772,26.80824029844805 a19.283860439611633,19.1944441277671 0 0 0 2.9568586007404507,23.481203316301748 l22.11215997075467,22.009629266506273 a19.283860439611633,19.1944441277671 0 0 0 23.590589271124895,2.943148099590956 l26.933125080657582,-16.12333306732436 a3.7667807392041395,3.7493147529571735 0 0 1 3.342535809532684,-0.06398148042589047 a3.6382216696067284,3.621351792105393 0 0 1 2.1855041831559854,2.3673147757579427 l7.584985106247242,30.327221721872014 a19.283860439611633,19.1944441277671 0 0 0 18.705344626423287,14.523796056677105 h31.368412981768255 a19.283860439611633,19.1944441277671 0 0 0 18.705344626423287,-14.523796056677105 l7.584985106247242,-30.327221721872014 a3.7667807392041395,3.7493147529571735 0 0 1 2.314063252753396,-2.4312962561838334 a3.7153571113651753,3.6981295686164612 0 0 1 3.2139767399352728,0.12796296085178085 l26.933125080657582,16.12333306732436 a19.367423834849948,19.277620052320756 0 0 0 23.590589271124895,-2.943148099590956 l22.11215997075467,-22.009629266506273 a19.283860439611633,19.1944441277671 0 0 0 2.9568586007404507,-23.481203316301748 l-16.198442769273772,-26.80824029844805 a3.663933483526211,3.6469443842757494 0 0 1 -0.25711813919482196,-2.4952777366097236 h66.91499572545237 a19.34171202093047,19.252027460150398 0 0 0 19.283860439611633,-19.1944441277671 v-236.7314775757942 a19.34171202093047,19.252027460150398 0 0 0 -19.283860439611633,-19.1944441277671 zm-32.13976739935272,245.9448107571224 a6.427953479870544,6.398148042589033 0 0 1 -4.885244644701615,6.206203601311362 l-30.46849949458638,7.549814690255058 a16.674111326784192,16.596796022475953 0 0 0 -11.184639054974747,9.85314798558711 a16.487700675867945,16.41124972924087 0 0 0 1.0284725567792874,14.651759017528885 l16.134163234475064,26.80824029844805 a6.331534177672486,6.302175821950198 0 0 1 -0.9641930219805819,7.80574061195862 l-22.17643950555338,22.073610746932165 a6.331534177672486,6.302175821950198 0 0 1 -7.842103245442064,0.9597222063883555 l-26.933125080657582,-16.059351586898472 a16.802670396381604,16.72475898332773 0 0 0 -24.619061827904186,10.109073907290675 l-7.584985106247242,30.327221721872014 a6.427953479870544,6.398148042589033 0 0 1 -6.235114875474427,4.862592512367667 h-31.368412981768255 a6.427953479870544,6.398148042589033 0 0 1 -6.235114875474427,-4.862592512367667 l-7.584985106247242,-30.327221721872014 a16.674111326784192,16.596796022475953 0 0 0 -9.89904835900064,-11.132777594104919 a17.11764011689526,17.038268237414595 0 0 0 -6.427953479870544,-1.279629608517807 a15.83847737440102,15.765036776939375 0 0 0 -8.292059989033003,2.303333295332052 l-26.933125080657582,16.059351586898472 a6.331534177672486,6.302175821950198 0 0 1 -7.842103245442064,-0.9597222063883555 l-22.17643950555338,-22.073610746932165 a6.331534177672486,6.302175821950198 0 0 1 -0.9641930219805819,-7.80574061195862 l16.134163234475064,-26.80824029844805 a16.802670396381604,16.72475898332773 0 0 0 -10.15616649819546,-24.504907003115996 l-30.46849949458638,-7.549814690255058 a6.427953479870544,6.398148042589033 0 0 1 -4.885244644701615,-6.206203601311362 v-31.22296244783448 a6.427953479870544,6.398148042589033 0 0 1 4.885244644701615,-6.206203601311362 l30.46849949458638,-7.549814690255058 a16.674111326784192,16.596796022475953 0 0 0 11.184639054974747,-9.85314798558711 a16.487700675867945,16.41124972924087 0 0 0 -1.0284725567792874,-14.651759017528885 l-16.134163234475064,-26.80824029844805 a6.331534177672486,6.302175821950198 0 0 1 0.9641930219805819,-7.80574061195862 l22.17643950555338,-22.073610746932165 a6.331534177672486,6.302175821950198 0 0 1 7.842103245442064,-0.9597222063883555 l26.933125080657582,16.059351586898472 a16.802670396381604,16.72475898332773 0 0 0 24.619061827904186,-10.109073907290675 l7.584985106247242,-30.327221721872014 a6.427953479870544,6.398148042589033 0 0 1 6.235114875474427,-4.862592512367667 h31.368412981768255 a6.427953479870544,6.398148042589033 0 0 1 6.235114875474427,4.862592512367667 l7.584985106247242,30.327221721872014 a16.674111326784192,16.596796022475953 0 0 0 9.89904835900064,11.132777594104919 a16.487700675867945,16.41124972924087 0 0 0 14.720013468903547,-1.0237036868142457 l26.933125080657582,-16.059351586898472 a6.427953479870544,6.398148042589033 0 0 1 7.842103245442064,0.9597222063883555 l22.17643950555338,22.073610746932165 a6.331534177672486,6.302175821950198 0 0 1 0.9641930219805819,7.80574061195862 l-16.134163234475064,26.80824029844805 a16.802670396381604,16.72475898332773 0 0 0 10.15616649819546,24.504907003115996 l30.46849949458638,7.549814690255058 a6.427953479870544,6.398148042589033 0 0 1 4.885244644701615,6.206203601311362 zm38.567720879223266,9.981110946438891 a6.427953479870544,6.398148042589033 0 0 1 -6.427953479870544,6.398148042589033 h-28.604392985423925 a19.21958090481293,19.130462647341208 0 0 0 9.320532545812288,-16.379258989027925 v-31.22296244783448 a19.283860439611633,19.1944441277671 0 0 0 -14.591454399306135,-18.618610803934086 l-30.46849949458638,-7.549814690255058 a3.7603527857242685,3.742916604914584 0 0 1 -2.1855041831559854,-1.5995370106472584 c-0.06427953479870553,-0.19194444127767107 -0.19283860439611653,-0.5118518434071229 -0.25711813919482196,-0.7037962846847945 a3.7153571113651753,3.6981295686164612 0 0 1 0.12855906959741104,-3.199074021294517 l16.198442769273772,-26.80824029844805 a19.283860439611633,19.1944441277671 0 0 0 -2.9568586007404507,-23.481203316301748 l-22.11215997075467,-22.009629266506273 a19.283860439611633,19.1944441277671 0 0 0 -23.590589271124895,-2.943148099590956 l-26.933125080657582,16.12333306732436 a3.7667807392041395,3.7493147529571735 0 0 1 -3.342535809532684,0.06398148042589047 a3.6382216696067284,3.621351792105393 0 0 1 -2.1855041831559854,-2.3673147757579427 l-7.584985106247242,-30.327221721872014 a19.283860439611633,19.1944441277671 0 0 0 -18.705344626423287,-14.523796056677105 h-31.368412981768255 a19.283860439611633,19.1944441277671 0 0 0 -18.705344626423287,14.523796056677105 l-7.584985106247242,30.327221721872014 a3.7667807392041395,3.7493147529571735 0 0 1 -2.314063252753396,2.4312962561838334 a3.7153571113651753,3.6981295686164612 0 0 1 -3.2139767399352728,-0.12796296085178085 l-26.933125080657582,-16.12333306732436 a19.367423834849948,19.277620052320756 0 0 0 -23.590589271124895,2.943148099590956 l-22.11215997075467,22.009629266506273 a19.283860439611633,19.1944441277671 0 0 0 -2.9568586007404507,23.481203316301748 l16.198442769273772,26.80824029844805 a3.7667807392041395,3.7493147529571735 0 0 1 0.06427953479870553,3.3270369821462977 a3.6382216696067284,3.621351792105393 0 0 1 -2.378342787552102,2.1753703344802715 l-30.46849949458638,7.549814690255058 a19.283860439611633,19.1944441277671 0 0 0 -14.591454399306135,18.618610803934086 v31.22296244783448 a19.21958090481293,19.130462647341208 0 0 0 9.320532545812288,16.379258989027925 h-28.604392985423925 a6.427953479870544,6.398148042589033 0 0 1 -6.427953479870544,-6.398148042589033 v-191.944441277671 h359.9653948727505 zm0,-204.74073736284905 h-359.9653948727505 v-31.990740212945163 a6.427953479870544,6.398148042589033 0 0 1 6.427953479870544,-6.398148042589033 h347.1094879130094 a6.427953479870544,6.398148042589033 0 0 1 6.427953479870544,6.398148042589033 z" id="svg_1" fill="#ffffff" fill-opacity="1"/><path d="m56.6007102000321,55.37037181911918 h12.855906959741088 v12.796296085178065 h-12.855906959741088 z" id="svg_2" fill="#ffffff" fill-opacity="1"/><path d="m82.31252411951426,55.37037181911918 h12.855906959741088 v12.796296085178065 h-12.855906959741088 z" id="svg_3" fill="#ffffff" fill-opacity="1"/><path d="m108.02433803899645,55.37037181911918 h12.855906959741088 v12.796296085178065 h-12.855906959741088 z" id="svg_4" fill="#ffffff" fill-opacity="1"/><path d="m223.72750067666624,183.33333267089984 a77.13544175844653,76.7777765110684 0 1 0 77.13544175844653,76.7777765110684 a77.21900515368485,76.86095243562205 0 0 0 -77.13544175844653,-76.7777765110684 zm0,140.7592569369587 a64.27953479870544,63.981480425890325 0 1 1 64.27953479870544,-63.981480425890325 a64.35024228698401,64.0518600543588 0 0 1 -64.27953479870544,63.981480425890325 z" id="svg_5" fill="#ffffff" fill-opacity="1"/><path d="m217.2995471967957,253.7129611393792 h12.855906959741088 v12.796296085178065 h-12.855906959741088 z" id="svg_6" fill="#ffffff" fill-opacity="1"/><path d="m243.01136111627787,253.7129611393792 h12.855906959741088 v12.796296085178065 h-12.855906959741088 z" id="svg_7" fill="#ffffff" fill-opacity="1"/><path d="m191.58773327731353,253.7129611393792 h12.855906959741088 v12.796296085178065 h-12.855906959741088 z" id="svg_8" fill="#ffffff" fill-opacity="1"/></g></g></svg>