<svg xmlns="http://www.w3.org/2000/svg" xmlns:xlink="http://www.w3.org/1999/xlink" xmlns:svgjs="http://svgjs.com/svgjs" version="1.1" width="512" height="512" style="" xml:space="preserve"><rect id="backgroundrect" width="100%" height="100%" x="0" y="0" fill="none" stroke="none"/><g class="currentLayer" style=""><title>Layer 1</title><g id="svg_1" class="" fill="#000000" fill-opacity="1">
<g xmlns="http://www.w3.org/2000/svg" id="svg_2" fill="#000000" fill-opacity="1">
	<g id="svg_3" fill="#000000" fill-opacity="1">
		<path d="M139.327,117.4383243098259 L96.901,75.0123243098259 c-5.857,-5.8580000000000005 -15.355,-5.8580000000000005 -21.213,0 c-5.8580000000000005,5.8580000000000005 -5.8580000000000005,15.355 0,21.213 l42.426,42.426 c5.857,5.8580000000000005 15.356,5.8580000000000005 21.213,0 C145.185,132.7933243098259 145.185,123.29632430982589 139.327,117.4383243098259 z" fill="#000000" data-original="#000000" style="" id="svg_4" fill-opacity="1"/>
	</g>
</g>
<g xmlns="http://www.w3.org/2000/svg" id="svg_5" fill="#000000" fill-opacity="1">
	<g id="svg_6" fill="#000000" fill-opacity="1">
		<path d="M76,240.3243243098259 H15 c-8.284,0 -15,6.716 -15,15 s6.716,15 15,15 h61 c8.284,0 15,-6.716 15,-15 S84.284,240.3243243098259 76,240.3243243098259 z" fill="#000000" data-original="#000000" style="" id="svg_7" fill-opacity="1"/>
	</g>
</g>
<g xmlns="http://www.w3.org/2000/svg" id="svg_8" fill="#000000" fill-opacity="1">
	<g id="svg_9" fill="#000000" fill-opacity="1">
		<path d="M497,240.3243243098259 h-61 c-8.284,0 -15,6.716 -15,15 s6.716,15 15,15 h61 c8.284,0 15,-6.716 15,-15 S505.284,240.3243243098259 497,240.3243243098259 z" fill="#000000" data-original="#000000" style="" id="svg_10" fill-opacity="1"/>
	</g>
</g>
<g xmlns="http://www.w3.org/2000/svg" id="svg_11" fill="#000000" fill-opacity="1">
	<g id="svg_12" fill="#000000" fill-opacity="1">
		<path d="M436.312,75.0123243098259 c-5.857,-5.8580000000000005 -15.355,-5.8580000000000005 -21.213,0 l-42.426,42.426 c-5.8580000000000005,5.8580000000000005 -5.8580000000000005,15.355 0,21.213 c5.857,5.8580000000000005 15.356,5.8580000000000005 21.213,0 l42.426,-42.426 C442.17,90.3673243098259 442.17,80.8703243098259 436.312,75.0123243098259 z" fill="#000000" data-original="#000000" style="" id="svg_13" fill-opacity="1"/>
	</g>
</g>
<g xmlns="http://www.w3.org/2000/svg" id="svg_14" fill="#000000" fill-opacity="1">
	<g id="svg_15" fill="#000000" fill-opacity="1">
		<path d="M256,-0.6756756901741028 c-8.284,0 -15,6.716 -15,15 v61 c0,8.284 6.716,15 15,15 s15,-6.716 15,-15 V14.324324309825897 C271,6.040324309825897 264.284,-0.6756756901741028 256,-0.6756756901741028 z" fill="#000000" data-original="#000000" style="" id="svg_16" fill-opacity="1"/>
	</g>
</g>
<g xmlns="http://www.w3.org/2000/svg" id="svg_17" fill="#000000" fill-opacity="1">
	<g id="svg_18" fill="#000000" fill-opacity="1">
		<path d="M339.867,149.5293243098259 c-32.508,-25.801 -74.844,-35.074 -116.148,-25.445 c-48.028,11.198 -86.69,49.285 -98.495,97.031 c-11.843,47.898 1.711,96.721 36.258,130.601 C173.886,363.8803243098259 181,382.2453243098259 181,402.1013243098259 V405.3243243098259 c0,13.296 5.801,25.26 15,33.505 V466.3243243098259 c0,24.813 20.187,45 45,45 h30 c24.813,0 45,-20.187 45,-45 v-27.495 c9.199,-8.245 15,-20.208 15,-33.505 v-3.282 c0,-19.545 7.495,-38.266 20.563,-51.361 C376.994,325.1943243098259 391,291.3293243098259 391,255.3243243098259 C391,213.88132430982589 372.363,175.3203243098259 339.867,149.5293243098259 zM286,466.3243243098259 c0,8.271 -6.729,15 -15,15 h-30 c-8.271,0 -15,-6.729 -15,-15 v-16 h60 V466.3243243098259 zM330.326,329.4903243098259 C311.689,348.1673243098259 301,374.6123243098259 301,402.0423243098259 V405.3243243098259 c0,8.271 -6.729,15 -15,15 h-15 v-91.898 c25.849,-6.678 45,-30.195 45,-58.102 c0,-8.284 -6.716,-15 -15,-15 s-15,6.716 -15,15 c0,16.542 -13.458,30 -30,30 s-30,-13.458 -30,-30 c0,-8.284 -6.716,-15 -15,-15 s-15,6.716 -15,15 c0,27.906 19.151,51.424 45,58.102 V420.3243243098259 h-15 c-8.271,0 -15,-6.729 -15,-15 v-3.223 c0,-27.863 -10.393,-54.035 -28.513,-71.805 c-26.889,-26.371 -37.409,-64.494 -28.14,-101.981 c9.125,-36.908 39.029,-66.353 76.184,-75.015 c8.414,-1.9620000000000002 16.874,-2.926 25.235,-2.926 c23.774,0 46.738,7.801 65.451,22.653 C346.5,193.0943243098259 361,223.0903243098259 361,255.3243243098259 C361,283.3283243098259 350.106,309.6673243098259 330.326,329.4903243098259 z" fill="#000000" data-original="#000000" style="" id="svg_19" fill-opacity="1"/>
	</g>
</g>
<g xmlns="http://www.w3.org/2000/svg" id="svg_20" fill="#000000" fill-opacity="1">
</g>
<g xmlns="http://www.w3.org/2000/svg" id="svg_21" fill="#000000" fill-opacity="1">
</g>
<g xmlns="http://www.w3.org/2000/svg" id="svg_22" fill="#000000" fill-opacity="1">
</g>
<g xmlns="http://www.w3.org/2000/svg" id="svg_23" fill="#000000" fill-opacity="1">
</g>
<g xmlns="http://www.w3.org/2000/svg" id="svg_24" fill="#000000" fill-opacity="1">
</g>
<g xmlns="http://www.w3.org/2000/svg" id="svg_25" fill="#000000" fill-opacity="1">
</g>
<g xmlns="http://www.w3.org/2000/svg" id="svg_26" fill="#000000" fill-opacity="1">
</g>
<g xmlns="http://www.w3.org/2000/svg" id="svg_27" fill="#000000" fill-opacity="1">
</g>
<g xmlns="http://www.w3.org/2000/svg" id="svg_28" fill="#000000" fill-opacity="1">
</g>
<g xmlns="http://www.w3.org/2000/svg" id="svg_29" fill="#000000" fill-opacity="1">
</g>
<g xmlns="http://www.w3.org/2000/svg" id="svg_30" fill="#000000" fill-opacity="1">
</g>
<g xmlns="http://www.w3.org/2000/svg" id="svg_31" fill="#000000" fill-opacity="1">
</g>
<g xmlns="http://www.w3.org/2000/svg" id="svg_32" fill="#000000" fill-opacity="1">
</g>
<g xmlns="http://www.w3.org/2000/svg" id="svg_33" fill="#000000" fill-opacity="1">
</g>
<g xmlns="http://www.w3.org/2000/svg" id="svg_34" fill="#000000" fill-opacity="1">
</g>
</g></g></svg>