<svg xmlns="http://www.w3.org/2000/svg" xmlns:xlink="http://www.w3.org/1999/xlink" xmlns:svgjs="http://svgjs.com/svgjs" version="1.1" width="507.169" height="507.169" style="" xml:space="preserve"><rect id="backgroundrect" width="100%" height="100%" x="0" y="0" fill="none" stroke="none"/><g class="currentLayer" style=""><title>Layer 1</title><g id="svg_1" class="selected" fill-opacity="1" fill="#215a68">
<g xmlns="http://www.w3.org/2000/svg" id="svg_2" fill="#215a68">
	<g id="svg_3" fill="#215a68">
		<path d="M252.9204444179535,358.3244444179535 c-24.24,0 -43.96,19.656 -43.96,43.804 c0,24.156 19.72,43.82 43.96,43.82 c24.248,0 43.968,-19.664 43.968,-43.82 C296.8884444179535,377.9804444179535 277.1644444179535,358.3244444179535 252.9204444179535,358.3244444179535 z" fill="#215a68" data-original="#000000" style="" id="svg_4"/>
	</g>
</g>
<g xmlns="http://www.w3.org/2000/svg" id="svg_5" fill="#215a68">
	<g id="svg_6" fill="#215a68">
		<path d="M360.1764444179535,298.6414444179535 c-28.62,-28.604 -66.716,-44.364 -107.256,-44.364 c-40.384,0 -78.376,15.656 -106.988,44.08 c-11.556000000000001,11.5 -11.576,30.236 -0.04800000000000001,41.756 c5.6,5.6080000000000005 13.056,8.688 20.992,8.688 c7.9,0 15.328,-3.064 20.92,-8.624 c17.412,-17.304 40.54,-26.836 65.124,-26.836 c24.676000000000002,0 47.868,9.592 65.292,27 c5.6,5.5920000000000005 13.052,8.68 20.98,8.68 c7.908,0 15.332,-3.064 20.928,-8.624 C371.6924444179535,328.8964444179535 371.71244441795346,310.1694444179535 360.1764444179535,298.6414444179535 z" fill="#215a68" data-original="#000000" style="" id="svg_7"/>
	</g>
</g>
<g xmlns="http://www.w3.org/2000/svg" id="svg_8" fill="#215a68">
	<g id="svg_9" fill="#215a68">
		<path d="M497.9564444179535,161.3164444179535 C432.5244444179535,96.04544441795349 345.4964444179535,60.10944441795349 252.9204444179535,60.10944441795349 c-92.452,0 -179.392,35.852 -244.804,100.968 c-11.556000000000001,11.5 -11.564,30.236 -0.016000000000000004,41.756 c5.596,5.58 13.04,8.648 20.96,8.648 c7.916,0 15.352,-3.056 20.948,-8.632 c54.22,-53.968 126.28,-83.696 202.912,-83.696 c76.744,0 148.876,29.788 203.108,83.9 c5.596,5.584 13.052,8.664 20.968,8.664 c7.912,0 15.348,-3.072 20.94,-8.64 C509.4964444179535,191.5684444179535 509.5084444179535,172.8254444179535 497.9564444179535,161.3164444179535 z" fill="#215a68" data-original="#000000" style="" id="svg_10"/>
	</g>
</g>
<g xmlns="http://www.w3.org/2000/svg" id="svg_11" fill="#215a68">
	<g id="svg_12" fill="#215a68">
		<path d="M427.32044441795347,231.7004444179535 C380.7444444179535,185.2324444179535 318.80844441795347,159.64444441795348 252.9204444179535,159.64444441795348 c-65.768,0 -127.612,25.508 -174.148,71.812 c-5.604,5.572 -8.688,12.984 -8.7,20.876 c0,7.884 3.072,15.304 8.668,20.884 c5.596,5.584 13.044,8.664 20.964,8.664 c7.908,0 15.344,-3.072 20.948,-8.632 c35.352,-35.172 82.328,-54.548 132.268,-54.548 c50.044,0 97.084,19.444 132.46,54.736 c5.604,5.5920000000000005 13.048,8.672 20.972,8.672 c7.912,0 15.352,-3.072 20.94,-8.64 c5.596,-5.572 8.688,-12.984 8.692,-20.876 C435.9924444179535,244.7004444179535 432.9124444179535,237.28844441795349 427.32044441795347,231.7004444179535 z" fill="#215a68" data-original="#000000" style="" id="svg_13"/>
	</g>
</g>
<g xmlns="http://www.w3.org/2000/svg" id="svg_14" fill="#215a68">
</g>
<g xmlns="http://www.w3.org/2000/svg" id="svg_15" fill="#215a68">
</g>
<g xmlns="http://www.w3.org/2000/svg" id="svg_16" fill="#215a68">
</g>
<g xmlns="http://www.w3.org/2000/svg" id="svg_17" fill="#215a68">
</g>
<g xmlns="http://www.w3.org/2000/svg" id="svg_18" fill="#215a68">
</g>
<g xmlns="http://www.w3.org/2000/svg" id="svg_19" fill="#215a68">
</g>
<g xmlns="http://www.w3.org/2000/svg" id="svg_20" fill="#215a68">
</g>
<g xmlns="http://www.w3.org/2000/svg" id="svg_21" fill="#215a68">
</g>
<g xmlns="http://www.w3.org/2000/svg" id="svg_22" fill="#215a68">
</g>
<g xmlns="http://www.w3.org/2000/svg" id="svg_23" fill="#215a68">
</g>
<g xmlns="http://www.w3.org/2000/svg" id="svg_24" fill="#215a68">
</g>
<g xmlns="http://www.w3.org/2000/svg" id="svg_25" fill="#215a68">
</g>
<g xmlns="http://www.w3.org/2000/svg" id="svg_26" fill="#215a68">
</g>
<g xmlns="http://www.w3.org/2000/svg" id="svg_27" fill="#215a68">
</g>
<g xmlns="http://www.w3.org/2000/svg" id="svg_28" fill="#215a68">
</g>
</g></g></svg>