<svg width="78" height="26" viewBox="0 0 78 26" fill="none" xmlns="http://www.w3.org/2000/svg">
<g clip-path="url(#clip0)">
<path d="M0 0H11.6367C15.1089 0 18.1169 1.9165 18.1169 5.66565C18.1169 7.72139 17.1721 9.88794 15.1448 10.6381C16.8113 11.2759 17.8399 13.1101 18.0615 15.579C18.1439 16.5508 18.1723 18.9119 18.7278 19.8283H12.61C12.3105 18.8281 12.1922 17.801 12.1099 16.7724C11.9437 14.8843 11.776 12.9124 9.3594 12.9124H6.11034V19.8283H0V0ZM6.11034 8.66617H9.304C10.4434 8.66617 11.9991 8.47152 11.9991 6.69427C11.9991 5.44405 11.3043 4.72088 8.97161 4.72088H6.11034V8.66617Z" fill="#020D2B"/>
<path d="M19.0613 0.0817871H34.3918V5.1635H25.1716V7.63549H33.0892V12.3579H25.1716V19.9131H19.0613V0.0817871Z" fill="#020D2B"/>
<path d="M43.1048 19.1873C43.1037 19.682 43.0763 20.1763 43.0224 20.6681C42.9684 21.1876 42.8508 21.6985 42.6721 22.1893C42.4856 22.6978 42.2297 23.178 41.9115 23.6162C41.5579 24.0957 41.1151 24.5025 40.6074 24.814C39.9893 25.1894 39.3157 25.4643 38.6115 25.6286C37.679 25.8441 36.7236 25.9447 35.7667 25.928C34.934 25.9283 34.1027 25.8602 33.2812 25.7244C32.4981 25.6012 31.7386 25.3583 31.0294 25.0042C30.3542 24.6639 29.7643 24.1763 29.303 23.5773C28.8329 22.9714 28.5334 22.1883 28.4046 21.2281H33.7289C33.769 21.308 33.8145 21.385 33.8652 21.4587C33.9191 21.541 33.973 21.6264 34.0284 21.7177C34.2055 21.9868 34.4255 22.225 34.6797 22.4229C34.94 22.6364 35.2669 22.7519 35.6035 22.7493C35.9856 22.7663 36.3612 22.6457 36.6621 22.4094C36.9374 22.1789 37.16 21.892 37.3149 21.568C37.4773 21.2334 37.5874 20.8759 37.6413 20.5079C37.6918 20.1799 37.7188 19.8486 37.7221 19.5167V18.2126H37.6682C37.2612 18.8216 36.7105 19.3209 36.0647 19.6665C35.393 20.0103 34.6466 20.1827 33.8921 20.168C32.9643 20.1919 32.0431 20.0061 31.197 19.6245C30.4618 19.284 29.8155 18.7777 29.309 18.1452C28.7992 17.4972 28.4249 16.7533 28.2085 15.9577C27.9679 15.091 27.8489 14.1951 27.8552 13.2956C27.8487 12.4109 27.9815 11.5307 28.2489 10.6874C28.4915 9.90838 28.8836 9.18417 29.4033 8.55525C29.924 7.93828 30.5729 7.44216 31.3048 7.10141C32.1404 6.72333 33.0501 6.53759 33.967 6.5579C34.7327 6.55105 35.49 6.71848 36.1814 7.0475C36.8558 7.36732 37.3846 7.92983 37.6622 8.62263H37.7311V6.90826H43.1108L43.1048 19.1873ZM33.2393 13.2656C33.2397 13.6709 33.2763 14.0752 33.3486 14.4739C33.4146 14.8633 33.543 15.2395 33.7289 15.5879C33.903 15.9154 34.155 16.1952 34.4626 16.4024C34.8209 16.6258 35.2386 16.735 35.6604 16.7153C36.0505 16.7408 36.4387 16.643 36.7702 16.4359C37.1017 16.2287 37.3598 15.9227 37.508 15.561C37.658 15.2058 37.7543 14.8304 37.794 14.447C37.8386 14.0458 37.8611 13.6424 37.8614 13.2387C37.8845 12.5381 37.6848 11.8482 37.2909 11.2683C36.9106 10.7333 36.3217 10.4663 35.5241 10.4673C35.1754 10.4603 34.8303 10.5395 34.5195 10.6978C34.237 10.8454 33.991 11.0541 33.7993 11.3087C33.6037 11.5735 33.4609 11.8734 33.3786 12.1921C33.2846 12.5422 33.2377 12.9032 33.2393 13.2656Z" fill="#51D87D" stroke="#51D87D" stroke-width="0.149726"/>
<path d="M49.026 15.1671C49.0979 15.9816 49.3604 16.6424 49.8136 17.1495C50.2667 17.6566 50.9185 17.9101 51.769 17.9101C52.2106 17.9092 52.6482 17.8265 53.0596 17.6661C53.4563 17.5261 53.7954 17.2586 54.0239 16.9055H59.0502C58.7985 17.6328 58.4114 18.306 57.9093 18.8893C57.4268 19.4448 56.8525 19.9132 56.2114 20.2743C55.5543 20.6427 54.8486 20.9168 54.1152 21.0888C53.3585 21.2703 52.5831 21.3618 51.8049 21.3613C50.7371 21.371 49.675 21.2056 48.6607 20.8717C47.7357 20.5707 46.8811 20.0859 46.1483 19.4463C45.4323 18.8078 44.8663 18.0189 44.4908 17.136C44.0755 16.1407 43.8716 15.07 43.8919 13.9918C43.8841 13.0024 44.0634 12.0204 44.4204 11.0976C44.7626 10.2185 45.275 9.41557 45.9282 8.73488C46.5944 8.04586 47.3943 7.50018 48.2789 7.13131C49.2474 6.73149 50.2871 6.53282 51.3348 6.54738C52.7322 6.54738 53.9365 6.73753 54.9477 7.11783C55.9061 7.46034 56.765 8.03433 57.4481 8.78878C58.1237 9.56792 58.6155 10.489 58.887 11.4839C59.2118 12.679 59.3675 13.9138 59.3496 15.1522L49.026 15.1671ZM54.1871 12.3687C54.1926 12.0601 54.1367 11.7534 54.0225 11.4665C53.9084 11.1796 53.7383 10.9183 53.5223 10.6978C53.3035 10.4699 53.0394 10.2904 52.7469 10.171C52.4544 10.0516 52.1402 9.9949 51.8244 10.0046C51.0089 10.0046 50.375 10.2087 49.9229 10.6169C49.4707 11.0252 49.1807 11.6091 49.053 12.3687H54.1871Z" fill="#51D87D" stroke="#51D87D" stroke-width="0.149726"/>
<path d="M60.2449 6.90896H65.4299V8.70568H65.4838C65.9617 8.02552 66.6012 7.47496 67.3449 7.1036C68.0786 6.74126 68.9884 6.5601 70.0744 6.5601C70.6937 6.55783 71.3091 6.65904 71.8951 6.85955C72.4629 7.05163 72.9885 7.35102 73.4433 7.74144C73.9085 8.14751 74.2755 8.6538 74.5168 9.22223C74.7934 9.89354 74.9275 10.615 74.9106 11.3409V21.0132H69.5369V13.6257C69.5377 13.2537 69.5192 12.8818 69.4815 12.5117C69.4564 12.2045 69.3736 11.9048 69.2374 11.6283C69.1177 11.3923 68.934 11.1947 68.7074 11.0579C68.4189 10.9073 68.0952 10.837 67.7701 10.8543C67.5217 10.856 67.2747 10.8928 67.0365 10.9636C66.7758 11.0402 66.5382 11.1801 66.3447 11.3708C66.1134 11.6051 65.9369 11.888 65.8282 12.1988C65.6784 12.64 65.6094 13.1046 65.6245 13.5703V21.0147H60.2449V6.90896Z" fill="#51D87D" stroke="#51D87D" stroke-width="0.149726"/>
<path d="M77.0309 20.3764C77.035 20.5274 76.994 20.6762 76.9129 20.8038C76.8318 20.9313 76.7145 21.0316 76.5759 21.0919C76.4374 21.1522 76.2839 21.1697 76.1354 21.1422C75.9868 21.1146 75.8499 21.0433 75.7422 20.9373C75.6345 20.8313 75.5609 20.6955 75.531 20.5474C75.501 20.3993 75.516 20.2456 75.5741 20.1061C75.6322 19.9666 75.7306 19.8477 75.8568 19.7646C75.983 19.6815 76.1312 19.638 76.2822 19.6397C76.4787 19.6397 76.6674 19.7169 76.8074 19.8547C76.9475 19.9925 77.0277 20.1799 77.0309 20.3764ZM75.7058 20.3764C75.7038 20.453 75.7172 20.5293 75.7452 20.6008C75.7732 20.6722 75.8153 20.7372 75.8689 20.7921C75.9225 20.847 75.9866 20.8905 76.0573 20.9202C76.1281 20.9498 76.204 20.965 76.2807 20.9648C76.3563 20.9644 76.431 20.9489 76.5004 20.9192C76.5699 20.8894 76.6326 20.846 76.685 20.7916C76.7373 20.7371 76.7782 20.6727 76.8052 20.6021C76.8323 20.5316 76.8448 20.4563 76.8422 20.3808C76.8462 20.3038 76.8344 20.2267 76.8076 20.1543C76.7809 20.0819 76.7397 20.0158 76.6865 19.9598C76.6334 19.9039 76.5694 19.8593 76.4985 19.8289C76.4275 19.7984 76.3512 19.7827 76.274 19.7827C76.1968 19.7827 76.1205 19.7984 76.0496 19.8289C75.9786 19.8593 75.9147 19.9039 75.8615 19.9598C75.8084 20.0158 75.7671 20.0819 75.7404 20.1543C75.7136 20.2267 75.7018 20.3038 75.7058 20.3808V20.3764ZM76.155 20.7582H75.9843V20.0215C76.078 20.0073 76.1725 19.9998 76.2673 19.999C76.3553 19.9896 76.444 20.0101 76.5188 20.0574C76.5424 20.0746 76.5616 20.0971 76.5749 20.1232C76.5882 20.1492 76.5951 20.178 76.5952 20.2072C76.5928 20.2487 76.5769 20.2884 76.5499 20.32C76.5228 20.3517 76.4861 20.3736 76.4454 20.3823V20.3913C76.5173 20.4138 76.5532 20.4722 76.5757 20.571C76.585 20.6332 76.6031 20.6937 76.6296 20.7507H76.4499C76.4208 20.6944 76.4011 20.6337 76.3915 20.571C76.3781 20.4946 76.3331 20.4587 76.2418 20.4587H76.161L76.155 20.7582ZM76.155 20.3449H76.2358C76.3302 20.3449 76.4065 20.3135 76.4065 20.2371C76.4065 20.1607 76.3571 20.1248 76.2493 20.1248C76.2176 20.1241 76.186 20.1272 76.155 20.1338V20.3449Z" fill="#020D2B"/>
</g>
<defs>
<clipPath id="clip0">
<rect width="77.0313" height="26" fill="white"/>
</clipPath>
</defs>
</svg>