<?xml version="1.0"?>
<svg xmlns="http://www.w3.org/2000/svg" xmlns:xlink="http://www.w3.org/1999/xlink" xmlns:svgjs="http://svgjs.com/svgjs" version="1.1" width="512" height="512" x="0" y="0" viewBox="0 0 512 512" style="enable-background:new 0 0 512 512" xml:space="preserve" class=""><g><g xmlns="http://www.w3.org/2000/svg" id="Solid"><path d="m411.18 120.25-21.96 81.96a24.029 24.029 0 0 1 -23.17 17.79 23.768 23.768 0 0 1 -6.22-.82l-81.96-21.96a24 24 0 1 1 12.42-46.36l26.96 7.22-50.86-88.08a12 12 0 0 0 -20.78 0l-49.65 86a24 24 0 1 1 -41.57-24l49.65-86a60 60 0 0 1 103.92 0l50.15 86.86 6.71-25.03a24 24 0 0 1 46.36 12.42z" fill="#231f20" data-original="#000000" style="" class=""/><path d="m481.17 406a59.383 59.383 0 0 1 -51.96 30h-98.27l19.03 19.03a24 24 0 1 1 -33.94 33.94l-60-60a24.021 24.021 0 0 1 0-33.94l60-60a24 24 0 0 1 33.94 33.94l-19.03 19.03h98.27a12 12 0 0 0 10.39-18l-49.65-86a24 24 0 1 1 41.56-24l49.66 86a59.416 59.416 0 0 1 0 60z" fill="#231f20" data-original="#000000" style="" class=""/><path d="m208 412a24.032 24.032 0 0 1 -24 24h-101.21a60 60 0 0 1 -51.96-90l50.22-86.98-22.84 6.12a24 24 0 0 1 -12.42-46.36l81.96-21.96a23.98 23.98 0 0 1 29.39 16.97l21.97 81.96a24 24 0 1 1 -46.37 12.42l-7.81-29.15-52.53 90.98a12 12 0 0 0 10.39 18h101.21a24.032 24.032 0 0 1 24 24z" fill="#231f20" data-original="#000000" style="" class=""/></g></g></svg>
