<?xml version="1.0" encoding="utf-8"?>
<!-- Generator: Adobe Illustrator 25.1.0, SVG Export Plug-In . SVG Version: 6.00 Build 0)  -->
<svg version="1.1" id="Layer_1" xmlns="http://www.w3.org/2000/svg" xmlns:xlink="http://www.w3.org/1999/xlink" x="0px" y="0px"
	 viewBox="0 0 322.72 147.06" style="enable-background:new 0 0 322.72 147.06;" xml:space="preserve">
<style type="text/css">
	.st0{fill:#FDFEFE;}
</style>
<g>
	<g>
		<path class="st0" d="M40.9,38.41h36.59c10.92,0,20.35,6.03,20.35,17.82c0,6.46-2.97,13.27-9.34,15.63
			c5.24,2.01,8.47,7.77,9.17,15.54c0.26,3.06,0.35,10.48,2.1,13.36H80.54c-0.96-3.14-1.31-6.38-1.57-9.61
			c-0.52-5.94-1.05-12.14-8.65-12.14H60.11v21.75H40.9V38.41z M60.11,65.66h10.04c3.58,0,8.47-0.61,8.47-6.2
			c0-3.93-2.18-6.2-9.52-6.2h-9V65.66z"/>
	</g>
	<path class="st0" d="M159.28,59.9v4.91c-1-2.01-2.51-3.51-4.49-4.46c-2.16-1.04-4.53-1.56-7.06-1.56c-3.21,0-6.06,0.58-8.47,1.73
		c-1.14,0.54-2.19,1.18-3.15,1.9h-16.06v-7.77h28.99V38.67h-48.21v62.35h19.21V77.27h8.4c-0.1,0.96-0.17,1.94-0.17,2.94
		c0,2.97,0.38,5.81,1.12,8.44c0.74,2.64,1.92,4.98,3.5,6.96c1.58,1.98,3.61,3.57,6.02,4.72c2.41,1.15,5.29,1.73,8.56,1.73
		c2.59,0,4.93-0.54,6.94-1.61c1.89-1,3.53-2.44,4.87-4.28v3.6c0,0.9-0.09,1.94-0.26,3.08c-0.17,1.13-0.5,2.23-1,3.26
		c-0.5,1.02-1.17,1.88-1.99,2.57c-0.81,0.67-1.88,1.01-3.18,1.01c-1.02,0-1.95-0.33-2.76-0.97c-0.83-0.66-1.5-1.39-2-2.16
		c-0.17-0.29-0.35-0.56-0.52-0.83c-0.16-0.24-0.3-0.47-0.41-0.7l-0.06-0.13h-17.15l0.03,0.27c0.4,3.04,1.36,5.57,2.87,7.5
		c1.49,1.92,3.34,3.46,5.5,4.55c2.16,1.09,4.56,1.86,7.16,2.28c2.59,0.43,5.23,0.65,7.85,0.65c3.47,0,6.49-0.32,8.98-0.95
		c2.49-0.63,4.62-1.5,6.35-2.59c1.72-1.09,3.12-2.37,4.16-3.82c1.03-1.43,1.85-2.96,2.42-4.54c0.57-1.58,0.95-3.21,1.12-4.84
		c0.17-1.63,0.26-3.21,0.26-4.68V59.9H159.28z M159.5,83.81c-0.14,1.25-0.44,2.41-0.88,3.43c-0.44,1.01-1.12,1.86-2.02,2.51
		c-0.89,0.65-2.1,0.98-3.58,0.98c-1.48,0-2.7-0.32-3.63-0.94c-0.93-0.63-1.68-1.46-2.23-2.48c-0.55-1.02-0.95-2.18-1.17-3.43
		c-0.22-1.26-0.34-2.52-0.34-3.76c0-1.17,0.14-2.28,0.42-3.31c0.27-1.01,0.71-1.92,1.29-2.7c0.58-0.77,1.31-1.39,2.19-1.85
		c0.87-0.46,1.9-0.7,3.05-0.7c2.41,0,4.22,0.81,5.36,2.42c1.16,1.63,1.75,3.67,1.75,6.06C159.71,81.27,159.64,82.54,159.5,83.81z"/>
	<path class="st0" d="M221.71,65.91c-2.07-2.32-4.74-4.11-7.95-5.32c-3.2-1.2-7.05-1.81-11.44-1.81c-3.54,0-6.81,0.62-9.7,1.85
		c-2.89,1.23-5.41,2.95-7.47,5.09c-2.06,2.14-3.67,4.67-4.79,7.51c-1.12,2.83-1.68,5.92-1.68,9.18c0,3.72,0.64,7.07,1.9,9.96
		c1.26,2.89,3.03,5.36,5.27,7.34c2.23,1.98,4.92,3.5,7.98,4.53c3.06,1.03,6.41,1.55,9.94,1.55c2.51,0,4.99-0.29,7.36-0.86
		c2.37-0.57,4.61-1.44,6.64-2.59c2.04-1.14,3.85-2.63,5.4-4.41c1.55-1.78,2.77-3.9,3.63-6.31l0.11-0.31h-16.27l-0.07,0.11
		c-0.65,1.03-1.63,1.8-2.92,2.3c-1.3,0.5-2.64,0.75-3.97,0.75c-2.59,0-4.61-0.78-5.98-2.31c-1.34-1.5-2.14-3.46-2.39-5.84h32.44
		V86.1c0-4.33-0.49-8.23-1.46-11.6C225.31,71.13,223.77,68.24,221.71,65.91z M211.04,77.07h-15.62c0.41-2.19,1.29-3.91,2.61-5.1
		c1.37-1.24,3.33-1.86,5.82-1.86c2.09,0,3.83,0.71,5.17,2.11C210.31,73.56,210.99,75.19,211.04,77.07z"/>
	<path class="st0" d="M275.43,67.3c-0.83-1.9-1.99-3.49-3.44-4.74c-1.44-1.24-3.1-2.19-4.95-2.82c-1.84-0.63-3.79-0.95-5.8-0.95
		c-3.44,0-6.36,0.58-8.69,1.73c-2.21,1.09-4.12,2.69-5.68,4.76V59.9h-16.79v44.8h17.39V81.06c0-1.73,0.21-3.15,0.62-4.23
		c0.42-1.07,0.94-1.92,1.57-2.52c0.62-0.6,1.32-1.01,2.08-1.22c0.77-0.22,1.53-0.33,2.24-0.33c1.2,0,2.15,0.2,2.83,0.61
		c0.67,0.4,1.2,0.97,1.58,1.7c0.38,0.74,0.63,1.65,0.74,2.69c0.11,1.09,0.17,2.26,0.17,3.48v23.47h17.39V74.06
		C276.69,71.47,276.27,69.2,275.43,67.3z"/>
	<path class="st0" d="M283.11,102.48c0,1.3-1.05,2.33-2.37,2.33c-1.33,0-2.39-1.03-2.39-2.33c0-1.3,1.06-2.32,2.4-2.32
		C282.06,100.17,283.11,101.18,283.11,102.48z M278.94,102.48c0,1.03,0.78,1.85,1.81,1.85c1,0.01,1.77-0.82,1.77-1.84
		c0-1.03-0.76-1.86-1.79-1.86C279.72,100.63,278.94,101.47,278.94,102.48z M280.37,103.68h-0.54v-2.32
		c0.21-0.03,0.51-0.07,0.89-0.07c0.44,0,0.64,0.07,0.79,0.18c0.14,0.1,0.24,0.27,0.24,0.49c0,0.28-0.21,0.47-0.48,0.55v0.03
		c0.23,0.07,0.34,0.25,0.41,0.56c0.07,0.35,0.13,0.48,0.17,0.57h-0.57c-0.07-0.08-0.11-0.28-0.18-0.57
		c-0.04-0.24-0.18-0.35-0.48-0.35h-0.25V103.68z M280.38,102.38h0.25c0.3,0,0.54-0.1,0.54-0.34c0-0.21-0.16-0.35-0.49-0.35
		c-0.14,0-0.24,0.01-0.3,0.03V102.38z"/>
</g>
</svg>
